<svg width="558" height="527" viewBox="0 0 558 527" fill="none" xmlns="http://www.w3.org/2000/svg">
<rect x="20" width="519" height="519" rx="93" fill="#0F0F0F"/>
<path d="M478.54 351.907C474.592 349.651 469.516 350.215 466.695 353.599C463.311 356.983 463.875 360.368 462.747 364.316C457.671 382.929 430.597 384.621 423.265 366.572V130.242L461.619 91.3236C466.131 86.8113 465.567 79.4789 460.491 76.0947C456.543 73.2745 452.595 74.4026 448.646 74.9666C440.186 76.0947 431.161 74.9666 422.701 74.4026C411.42 73.2745 400.704 71.0184 389.987 68.7623C382.09 67.0702 368.554 60.3017 362.349 67.6342L319.483 119.525C314.406 126.294 318.919 135.882 327.379 135.882H331.327V186.645H269.284V134.754L309.33 80.0429C314.97 72.1465 306.51 60.8658 297.485 64.814C294.665 65.9421 291.845 68.7623 289.589 71.0184C277.744 80.0429 263.643 85.6833 248.414 85.1192C237.698 84.5552 227.545 81.171 217.393 78.9149C207.804 76.6587 197.651 74.9666 188.063 72.7105C176.218 70.4544 164.373 68.1982 151.965 66.5061C124.891 60.8658 101.766 68.7623 86.5368 88.5034C79.6013 97.5713 75.2821 108.366 74.0481 119.715C72.814 131.064 74.7123 142.535 79.5368 152.881C84.3613 163.228 91.9278 172.055 101.415 178.405C110.902 184.755 121.947 188.385 133.352 188.901C138.992 188.901 148.017 189.465 153.093 185.517C157.605 182.133 158.169 175.365 154.785 171.416C149.709 166.34 142.94 166.34 138.428 161.828C134.48 158.444 131.659 153.367 131.095 147.727C129.967 136.446 137.3 125.166 148.581 122.909C160.425 120.089 172.27 126.858 175.654 138.138V187.209C154.221 191.158 140.12 208.079 137.3 229.512C136.736 234.588 135.608 240.793 139.556 245.305C142.94 248.689 148.016 249.253 151.965 246.997C159.297 243.049 167.194 240.228 175.09 239.1V250.945C153.657 254.893 139.556 271.814 136.736 293.248C136.172 298.324 135.044 304.528 138.992 309.041C142.376 312.425 147.452 312.989 151.401 310.733C158.733 306.784 166.63 303.964 174.526 302.836V335.55C156.382 339.664 139.292 347.504 124.339 358.573C109.386 369.642 96.8973 383.698 87.6649 399.85C84.2807 405.49 82.0245 411.131 79.7684 416.771C78.0763 421.847 74.6921 427.488 77.5123 433.128C85.4088 447.793 101.202 428.052 108.534 423.539C131.095 408.31 158.733 401.542 185.807 405.49C206.694 408.223 226.312 417.052 242.21 430.872C246.722 434.82 252.927 438.204 258.567 433.128L301.998 395.902C313.842 386.313 300.87 375.033 294.665 369.392C286.769 362.06 277.744 355.291 268.72 349.651V270.122H330.763V366.008C330.763 407.746 373.066 438.768 411.42 438.768C446.954 438.768 477.976 412.259 483.052 377.289C484.18 369.392 486.437 356.419 478.54 351.907ZM387.731 413.387C368.554 405.49 351.069 388.005 351.069 366.008V259.97C351.069 254.329 346.556 249.817 340.916 249.817H258.567C252.927 249.817 248.414 254.329 248.414 259.97V355.855C248.414 364.316 258.567 367.136 264.207 371.084C270.976 375.597 277.18 380.673 282.821 386.313L252.927 411.695C214.572 381.237 159.861 375.033 115.302 396.466C125.455 382.929 138.992 371.648 154.221 364.316C162.117 360.368 170.578 357.547 179.038 355.291C186.371 353.599 195.959 353.035 195.395 343.447V291.556C195.959 274.635 168.886 281.967 159.861 284.787C164.373 275.199 174.526 270.122 184.679 270.122C190.883 270.686 195.395 265.61 195.395 259.406V228.384C195.959 211.463 168.886 218.795 159.861 221.615C162.681 215.411 167.758 210.899 174.526 208.643C177.91 207.515 181.294 207.515 185.243 206.951C190.883 207.515 195.959 202.438 195.959 196.798V137.01C195.959 126.294 185.807 114.449 177.346 109.373C172.298 106.138 166.642 103.969 160.726 102.999C154.809 102.029 148.757 102.278 142.94 103.732C136.959 105.427 131.403 108.367 126.637 112.359C121.872 116.352 118.004 121.307 115.288 126.899C112.572 132.491 111.068 138.594 110.876 144.808C110.684 151.022 111.808 157.207 114.174 162.956C94.9973 151.675 87.1009 126.858 97.8175 107.117C102.33 98.656 109.662 91.8876 118.687 87.9394C128.275 83.9912 137.3 85.1192 147.452 86.8113C162.681 89.0675 177.91 91.8876 192.575 95.2718C216.265 99.7841 241.646 109.937 265.9 104.296L249.542 126.858C248.414 128.55 247.85 130.806 247.85 133.062V198.49C247.85 204.13 252.363 208.643 258.003 208.643H340.352C345.992 208.643 350.505 204.13 350.505 198.49V126.294C350.505 122.909 348.812 120.089 345.992 117.833L372.502 85.6833C383.783 88.5034 407.472 94.1438 428.341 95.2718L405.216 118.961C403.524 121.217 402.396 123.474 402.396 126.294V368.264C402.396 377.853 411.984 388.005 419.317 393.082C428.905 399.286 440.186 400.978 451.467 398.722C436.238 417.899 410.292 422.411 387.731 413.387ZM83.1526 315.245C77.5123 315.245 73 310.733 73 305.092V231.204C73 225.564 77.5123 221.051 83.1526 221.051C88.793 221.051 93.3052 225.564 93.3052 231.204V305.092C93.3052 310.733 88.793 315.245 83.1526 315.245ZM215.7 459.638C213.444 464.714 207.804 467.534 202.728 465.278C182.422 457.381 159.297 457.381 138.992 465.842C137.864 466.406 136.172 466.406 135.044 466.406C131.095 466.406 127.147 464.15 125.455 460.202C123.199 455.125 126.019 448.921 131.095 446.665C155.913 436.512 184.679 435.948 209.496 446.101C215.136 448.921 217.957 454.561 215.7 459.638ZM467.823 135.882C473.464 135.882 477.976 140.395 477.976 146.035V305.092C477.976 310.733 473.464 315.245 467.823 315.245C462.183 315.245 457.671 310.733 457.671 305.092V146.035C457.671 140.395 462.183 135.882 467.823 135.882Z" fill="white"/>
</svg>
