<svg width="508" height="508" viewBox="0 0 508 508" fill="none" xmlns="http://www.w3.org/2000/svg">
<path d="M454.047 349.137C450.099 346.881 445.022 347.445 442.202 350.829C438.818 354.213 439.382 357.597 438.254 361.546C433.178 380.159 406.104 381.851 398.772 363.802V127.472L437.126 88.5533C441.638 84.041 441.074 76.7086 435.998 73.3244C432.05 70.5042 428.101 71.6323 424.153 72.1963C415.693 73.3244 406.668 72.1963 398.208 71.6323C386.927 70.5042 376.21 68.2481 365.494 65.9919C357.597 64.2998 344.06 57.5314 337.856 64.8639L294.99 116.755C289.913 123.523 294.426 133.112 302.886 133.112H306.834V183.875H244.791V131.984L284.837 77.2726C290.477 69.3761 282.017 58.0955 272.992 62.0437C270.172 63.1718 267.352 65.9919 265.096 68.2481C253.251 77.2726 239.15 82.9129 223.921 82.3489C213.205 81.7849 203.052 78.4007 192.899 76.1445C183.311 73.8884 173.158 72.1963 163.57 69.9402C151.725 67.684 139.88 65.4279 127.472 63.7358C100.398 58.0955 77.2726 65.9919 62.0437 85.7331C55.1082 94.801 50.789 105.595 49.5549 116.945C48.3209 128.294 50.2191 139.764 55.0437 150.111C59.8682 160.457 67.4347 169.285 76.9217 175.635C86.4088 181.985 97.4541 185.615 108.859 186.131C114.499 186.131 123.523 186.695 128.6 182.747C133.112 179.363 133.676 172.594 130.292 168.646C125.215 163.57 118.447 163.57 113.935 159.057C109.987 155.673 107.166 150.597 106.602 144.957C105.474 133.676 112.807 122.395 124.087 120.139C135.932 117.319 147.777 124.087 151.161 135.368V184.439C129.728 188.387 115.627 205.308 112.807 226.742C112.243 231.818 111.115 238.022 115.063 242.534C118.447 245.919 123.523 246.483 127.472 244.227C134.804 240.278 142.7 237.458 150.597 236.33V248.175C129.164 252.123 115.063 269.044 112.243 290.477C111.679 295.554 110.551 301.758 114.499 306.27C117.883 309.654 122.959 310.218 126.908 307.962C134.24 304.014 142.136 301.194 150.033 300.066V332.78C131.889 336.894 114.799 344.734 99.8459 355.803C84.893 366.872 72.4041 380.928 63.1717 397.08C59.7875 402.72 57.5314 408.36 55.2753 414.001C53.5832 419.077 50.199 424.717 53.0192 430.358C60.9156 445.023 76.7086 425.281 84.041 420.769C106.602 405.54 134.24 398.772 161.314 402.72C182.201 405.453 201.819 414.281 217.717 428.102C222.229 432.05 228.434 435.434 234.074 430.358L277.505 393.131C289.349 383.543 276.376 372.262 270.172 366.622C262.276 359.289 253.251 352.521 244.227 346.881V267.352H306.27V363.238C306.27 404.976 348.573 435.998 386.927 435.998C422.461 435.998 453.483 409.488 458.559 374.518C459.687 366.622 461.944 353.649 454.047 349.137ZM363.238 410.616C344.06 402.72 326.575 385.235 326.575 363.238V257.199C326.575 251.559 322.063 247.047 316.423 247.047H234.074C228.434 247.047 223.921 251.559 223.921 257.199V353.085C223.921 361.546 234.074 364.366 239.714 368.314C246.483 372.826 252.687 377.903 258.327 383.543L228.434 408.924C190.079 378.467 135.368 372.262 90.8094 393.695C100.962 380.159 114.499 368.878 129.728 361.546C137.624 357.597 146.085 354.777 154.545 352.521C161.878 350.829 171.466 350.265 170.902 340.676V288.785C171.466 271.864 144.393 279.197 135.368 282.017C139.88 272.428 150.033 267.352 160.186 267.352C166.39 267.916 170.902 262.84 170.902 256.635V225.613C171.466 208.692 144.393 216.025 135.368 218.845C138.188 212.641 143.264 208.128 150.033 205.872C153.417 204.744 156.801 204.744 160.75 204.18C166.39 204.744 171.466 199.668 171.466 194.028V134.24C171.466 123.523 161.314 111.679 152.853 106.602C147.805 103.367 142.149 101.198 136.233 100.228C130.316 99.2585 124.264 99.5081 118.447 100.962C112.466 102.657 106.91 105.597 102.144 109.589C97.3786 113.582 93.5109 118.536 90.7946 124.129C88.0784 129.721 86.5751 135.824 86.3832 142.038C86.1914 148.252 87.3153 154.436 89.6813 160.186C70.5042 148.905 62.6077 124.087 73.3244 104.346C77.8366 95.8857 85.1691 89.1173 94.1936 85.1691C103.782 81.2208 112.807 82.3489 122.959 84.041C138.188 86.2971 153.417 89.1173 168.082 92.5015C191.771 97.0138 217.153 107.166 241.406 101.526L225.049 124.087C223.921 125.779 223.357 128.036 223.357 130.292V195.72C223.357 201.36 227.87 205.872 233.51 205.872H315.859C321.499 205.872 326.011 201.36 326.011 195.72V123.523C326.011 120.139 324.319 117.319 321.499 115.063L348.009 82.9129C359.289 85.7331 382.979 91.3734 403.848 92.5015L380.723 116.191C379.031 118.447 377.903 120.703 377.903 123.523V365.494C377.903 375.082 387.491 385.235 394.824 390.311C404.412 396.516 415.693 398.208 426.973 395.952C411.745 415.129 385.799 419.641 363.238 410.616ZM58.6595 312.475C53.0192 312.475 48.5069 307.962 48.5069 302.322V228.434C48.5069 222.793 53.0192 218.281 58.6595 218.281C64.2998 218.281 68.8121 222.793 68.8121 228.434V302.322C68.8121 307.962 64.2998 312.475 58.6595 312.475ZM191.207 456.867C188.951 461.944 183.311 464.764 178.235 462.508C157.929 454.611 134.804 454.611 114.499 463.072C113.371 463.636 111.679 463.636 110.551 463.636C106.602 463.636 102.654 461.379 100.962 457.431C98.7058 452.355 101.526 446.151 106.602 443.894C131.42 433.742 160.186 433.178 185.003 443.33C190.643 446.151 193.463 451.791 191.207 456.867ZM443.33 133.112C448.971 133.112 453.483 137.624 453.483 143.265V302.322C453.483 307.962 448.971 312.475 443.33 312.475C437.69 312.475 433.178 307.962 433.178 302.322V143.265C433.178 137.624 437.69 133.112 443.33 133.112ZM426.409 0H73.8884C33.278 0 0 33.278 0 73.8884V426.973C0 470.968 36.6622 507.63 81.2208 507.63H426.973C470.968 507.63 507.63 470.968 507.63 426.409V81.2208C507.63 36.6622 470.968 0 426.409 0ZM487.325 426.409C487.325 459.687 459.687 487.325 426.409 487.325H81.2208C47.9429 487.325 20.3052 459.687 20.3052 426.409V73.8884C20.3052 44.5587 44.5587 20.3052 73.8884 20.3052H426.973C460.251 20.3052 487.889 47.9429 487.889 81.2208L487.325 426.409Z" fill="url(#paint0_linear_541_2471)"/>
<defs>
<linearGradient id="paint0_linear_541_2471" x1="0" y1="0" x2="507.63" y2="0" gradientUnits="userSpaceOnUse">
<stop stop-color="#FF6CAB"/>
<stop offset="1" stop-color="#7366FF"/>
</linearGradient>
</defs>
</svg>
